<svg xmlns="http://www.w3.org/2000/svg" viewBox="0 0 120 120">
  <defs>
    <linearGradient id="lovG" x1="0" y1="0" x2="1" y2="1">
      <stop offset="0" stop-color="#7c5cff"/>
      <stop offset="1" stop-color="#00e0ff"/>
    </linearGradient>
  </defs>
  <!-- Chat bubble with heart - iconic moment -->
  <g transform="translate(60,55)">
    <!-- Chat bubble -->
    <path d="M-30,-30 L30,-30 C36,-30 40,-26 40,-20 L40,10 C40,16 36,20 30,20 L-10,20 L-22,35 L-18,20 L-30,20 C-36,20 -40,16 -40,10 L-40,-20 C-40,-26 -36,-30 -30,-30Z" fill="url(#lovG)" fill-opacity="0.1" stroke="url(#lovG)" stroke-width="1.2" stroke-opacity="0.5"/>
    <!-- Heart inside -->
    <path d="M0,12 C-10,5 -18,-2 -18,-10 C-18,-16 -14,-20 -9,-20 C-5,-20 -2,-17 0,-13 C2,-17 5,-20 9,-20 C14,-20 18,-16 18,-10 C18,-2 10,5 0,12Z" fill="url(#lovG)" opacity="0.3"/>
    <!-- Sparkles -->
    <circle cx="-28" cy="-35" r="1.5" fill="#7c5cff" opacity="0.4"/>
    <circle cx="30" cy="-35" r="1" fill="#00e0ff" opacity="0.3"/>
    <circle cx="25" cy="28" r="1.5" fill="#7c5cff" opacity="0.3"/>
  </g>
</svg>
