<svg xmlns="http://www.w3.org/2000/svg" viewBox="0 0 80 80">
  <defs>
    <linearGradient id="sg" x1="0" y1="0" x2="1" y2="1">
      <stop offset="0" stop-color="#7c5cff"/>
      <stop offset="1" stop-color="#00e0ff"/>
    </linearGradient>
  </defs>
  <!-- Chat bubble -->
  <path d="M15,18 C15,12 22,8 35,8 L55,8 C63,8 68,14 68,22 L68,38 C68,46 63,50 55,50 L35,50 L22,60 L25,50 L20,50 C15,50 12,46 12,38 L12,22 C12,14 14,18 15,18 Z" fill="url(#sg)" fill-opacity="0.15" stroke="url(#sg)" stroke-width="1.5" stroke-opacity="0.6"/>
  <!-- Fire/spice icon inside -->
  <path d="M38,22 C38,22 42,18 42,25 C42,28 40,30 40,33 C44,30 48,26 45,22 C50,26 52,32 48,38 C44,44 36,44 32,38 C28,32 30,26 35,22 C32,26 36,30 40,33" fill="none" stroke="url(#sg)" stroke-width="1.2" opacity="0.7" stroke-linecap="round"/>
  <!-- Sparkles -->
  <circle cx="25" cy="28" r="1.5" fill="#7c5cff" opacity="0.5"/>
  <circle cx="58" cy="32" r="1" fill="#00e0ff" opacity="0.4"/>
  <circle cx="30" cy="42" r="1" fill="#00e0ff" opacity="0.3"/>
</svg>
